<svg xmlns="http://www.w3.org/2000/svg" xmlns:xlink="http://www.w3.org/1999/xlink" id="Layer_1" x="0" y="0" version="1.1" viewBox="0 0 720 561.6" xml:space="preserve" style="enable-background:new 0 0 720 561.6"><style type="text/css">.st0{fill:none;stroke:#e1845d;stroke-width:25;stroke-miterlimit:10}.st1{fill:#edede6}.st2,.st3{fill:none}.st3{stroke:#f8f8f3;stroke-width:10;stroke-miterlimit:10}.st4{fill:#e1845b}.st5{fill:#97b9bb}.st6{fill:#e1845d}.st7{fill:#edece6}</style><path d="M89.68,126.44" class="st0"/><polygon points="280.43 346.18 233.58 303.95 141.46 303.95 69.61 273.97 69.61 158.57 221.96 72.39 277.6 72.39 277.6 126.44 246.54 126.44 246.54 103.44 230.14 103.44 100.66 176.68 100.66 253.28 147.68 272.89 245.5 272.89 301.22 323.1" class="st1"/><line x1="501.86" x2="490.09" y1="581.27" y2="563.77" class="st2"/><polygon points="488.04 561.73 402.09 432.87 252.73 432.87 199.22 377.96 129.98 377.96 .35 318.17 .35 117.54 201.57 0 341.26 0 341.26 126.44 310.21 126.44 310.21 31.05 209.98 31.05 31.41 135.36 31.41 298.29 136.78 346.91 212.32 346.91 265.82 401.82 418.62 401.82 438.83 431.88 468.91 476.62 477.36 489.17 493.59 513.33 525.59 561.92" class="st1"/><polygon points="688.59 350.16 688.59 169.45 484.27 31.05 421 31.05 421 126.44 389.95 126.44 389.95 0 493.8 0 719.65 152.99 719.65 319.11" class="st1"/><path d="M646.2,420.45H477.89l-69.58-101.34H646.2V420.45z M494.24,389.4h120.91v-39.24H467.28L494.24,389.4z" class="st1"/><path d="M25.29,55.25" class="st3"/><path d="M309.64,120.27" class="st0"/><path d="M239.69,117.64" class="st0"/><polyline points="387.57 350.16 284.86 350.16 229.14 299.95 249.93 276.88 296.8 319.11 368.04 319.11" class="st1"/><line x1="365.6" x2="366.64" y1="319.11" y2="319.11" class="st2"/><polyline points="646.2 280.95 615.15 280.93 615.15 198.98 473.79 103.44 484.63 103.44 484.63 126.44 453.58 126.44 453.58 72.39 483.31 72.39 646.2 182.48 646.2 280.95" class="st1"/><path d="M309.64,294.07" class="st0"/><path d="M309.64,243.18" class="st0"/><path d="M403.54,246.6" class="st0"/><path d="M403.54,199.12" class="st0"/><path d="M211.72,172.54" class="st0"/><path d="M211.72,254.9" class="st0"/><polygon points="197.87 250.1 166.82 250.1 166.82 156.92 237.72 156.92 237.72 208.83 206.67 208.83 206.67 187.97 197.87 187.97" class="st4"/><polygon points="277.6 250.1 246.54 250.1 246.54 187.97 237.72 187.97 237.72 219.12 206.67 219.12 206.67 156.92 277.6 156.92" class="st4"/><polygon points="341.26 250.1 310.21 250.1 310.21 156.92 381.13 156.92 381.13 208.83 350.08 208.83 350.08 187.97 341.26 187.97" class="st4"/><polygon points="421 250.1 389.95 250.1 389.95 187.97 381.13 187.97 381.13 219.12 350.08 219.12 350.08 156.92 421 156.92" class="st4"/><polyline points="646.2 249.9 520.7 249.99 544.64 280.87 646.2 280.95" class="st4"/><polyline points="548.63 249.95 559.49 249.9 524.51 203.62 524.51 172.45 504.07 156.92 453.58 156.92 453.58 250.1 484.63 250.1 484.63 187.97 493.45 187.97 493.45 214.03 517.57 245.95 520.7 249.99" class="st4"/><path d="M453.58,156.92" class="st5"/><path d="M310.21,156.92" class="st6"/><path d="M310.21,156.92" class="st6"/><path d="M276.9,156.92" class="st6"/><rect width="32.62" height="31.05" x="277.63" y="219.12" class="st7"/><path d="M334.74,272.88" class="st7"/><rect width="35.66" height="31.05" x="276.1" y="219.12" class="st4"/><polyline points="421 219.05 453.62 219.05 453.62 250.1 421 250.1" class="st4"/></svg>